<?xml version="1.0" encoding="UTF-8" standalone="no"?>
<svg width="314.325mm" height="53.6222mm"
 xmlns="http://www.w3.org/2000/svg" xmlns:xlink="http://www.w3.org/1999/xlink"  version="1.2" baseProfile="tiny">
<title>Qt SVG Document</title>
<desc>Generated with Qt</desc>
<defs>
</defs>
<g fill="none" stroke="black" stroke-width="1" fill-rule="evenodd" stroke-linecap="square" stroke-linejoin="bevel" >

<g fill="none" stroke="#000000" stroke-opacity="1" stroke-width="1" stroke-linecap="square" stroke-linejoin="bevel" transform="matrix(1,0,0,1,0,0)"
font-family="Ubuntu" font-size="11" font-weight="400" font-style="normal" 
>
</g>

<g fill="none" stroke="#000000" stroke-opacity="1" stroke-width="1" stroke-linecap="square" stroke-linejoin="bevel" transform="matrix(1,0,0,1,0,0)"
font-family="Ubuntu" font-size="11" font-weight="400" font-style="normal" 
>
</g>

<g fill="none" stroke="#000000" stroke-opacity="1" stroke-width="1" stroke-linecap="square" stroke-linejoin="bevel" transform="matrix(2,0,0,2,-0.0036,167)"
font-family="Ubuntu" font-size="11" font-weight="400" font-style="normal" 
>
</g>

<g fill="#ffffff" fill-opacity="1" stroke="none" transform="matrix(2,0,0,2,-0.0036,167)"
font-family="Ubuntu" font-size="11" font-weight="400" font-style="normal" 
>
<rect x="0.0018" y="-83.5" width="445.272" height="76"/>
</g>

<g fill="none" stroke="#000000" stroke-opacity="1" stroke-width="1" stroke-linecap="square" stroke-linejoin="bevel" transform="matrix(2,0,0,2,-0.0036,167)"
font-family="Ubuntu" font-size="11" font-weight="400" font-style="normal" 
>
</g>

<g fill="none" stroke="#000000" stroke-opacity="1" stroke-width="1" stroke-linecap="square" stroke-linejoin="bevel" transform="matrix(2,0,0,2,-0.0036,167)"
font-family="Ubuntu" font-size="11" font-weight="400" font-style="normal" 
>
</g>

<g fill="none" stroke="#000000" stroke-opacity="1" stroke-width="1" stroke-linecap="square" stroke-linejoin="bevel" transform="matrix(2,0,0,2,-0.0036,167)"
font-family="Ubuntu" font-size="11" font-weight="400" font-style="normal" 
>
</g>

<g fill="none" stroke="#000000" stroke-opacity="1" stroke-width="1" stroke-linecap="square" stroke-linejoin="bevel" transform="matrix(2,0,0,2,-0.0036,167)"
font-family="Ubuntu" font-size="11" font-weight="400" font-style="normal" 
>
</g>

<g fill="none" stroke="#000000" stroke-opacity="1" stroke-width="1" stroke-linecap="square" stroke-linejoin="round" transform="matrix(2,0,0,2,-0.0036,167)"
font-family="Ubuntu" font-size="11" font-weight="400" font-style="normal" 
>
<rect x="122.39" y="-83" width="168" height="75"/>
</g>

<g fill="none" stroke="#000000" stroke-opacity="1" stroke-width="1" stroke-linecap="square" stroke-linejoin="bevel" transform="matrix(2,0,0,2,-0.0036,167)"
font-family="Ubuntu" font-size="11" font-weight="400" font-style="normal" 
>
</g>

<g fill="none" stroke="#000000" stroke-opacity="1" stroke-width="1" stroke-linecap="square" stroke-linejoin="bevel" transform="matrix(2,0,0,2,341.933,10)"
font-family="Ubuntu" font-size="11" font-weight="400" font-style="normal" 
>
</g>

<g fill="none" stroke="#000000" stroke-opacity="1" stroke-width="1" stroke-linecap="square" stroke-linejoin="bevel" transform="matrix(2,0,0,2,341.933,10)"
font-family="sans" font-size="11" font-weight="100" font-style="normal" 
>
</g>

<g fill="#000000" fill-opacity="1" stroke="#000000" stroke-opacity="1" stroke-width="1" stroke-linecap="square" stroke-linejoin="round" transform="matrix(2,0,0,2,341.933,10)"
font-family="sans" font-size="11" font-weight="100" font-style="normal" 
>
<path vector-effect="none" fill-rule="nonzero" d="M2.96875,2.98438 L3.53125,2.98438 L0.734375,12.0156 L0.171875,12.0156 L2.96875,2.98438 M4.40625,4.98438 L4.92188,4.98438 L6.95313,10.4531 L9,4.98438 L9.51563,4.98438 L7.28125,11 L6.64063,11 L4.40625,4.98438 M11.4375,4.98438 L11.9375,4.98438 L11.9375,11 L11.4375,11 L11.4375,4.98438 M11.4375,2.64063 L11.9375,2.64063 L11.9375,3.3125 L11.4375,3.3125 L11.4375,2.64063 M18.6094,5.28125 L18.6094,5.79688 C18.3177,5.61979 18.0729,5.5 17.875,5.4375 C17.5417,5.33333 17.224,5.28125 16.9219,5.28125 C16.0573,5.28125 15.4375,5.5026 15.0625,5.94531 C14.6875,6.38802 14.5,7.07292 14.5,8 C14.5,8.9375 14.6875,9.6276 15.0625,10.0703 C15.4375,10.513 16.0573,10.7344 16.9219,10.7344 C17.2135,10.7344 17.4948,10.6927 17.7656,10.6094 C18.0573,10.5365 18.3385,10.4219 18.6094,10.2656 L18.6094,10.7656 C18.3385,10.901 18.0573,11 17.7656,11.0625 C17.4635,11.125 17.1667,11.1563 16.875,11.1563 C16,11.1563 15.3021,10.9167 14.7813,10.4375 C14.2604,9.95833 14,9.14323 14,7.99219 C14,6.84115 14.2604,6.02604 14.7813,5.54688 C15.3021,5.07813 16,4.84375 16.875,4.84375 C17.1667,4.84375 17.474,4.88542 17.7969,4.96875 C18.1198,5.04167 18.3906,5.14583 18.6094,5.28125 M21.0625,3.28125 L21.0625,4.98438 L23.0938,4.98438 L23.0938,5.40625 L21.0625,5.40625 L21.0625,9.01563 C21.0625,9.47396 21.1198,9.79688 21.2344,9.98438 C21.4844,10.3802 21.8438,10.5781 22.3125,10.5781 L23.0938,10.5781 L23.0938,11 L22.3281,11 C21.8385,11 21.4219,10.8568 21.0781,10.5703 C20.7344,10.2839 20.5625,9.76563 20.5625,9.01563 L20.5625,5.40625 L19.8438,5.40625 L19.8438,4.98438 L20.5625,4.98438 L20.5625,3.28125 L21.0625,3.28125 M24.7969,8.60938 L24.7969,4.98438 L25.2813,4.98438 L25.2813,8.57813 C25.2813,9.35938 25.4063,9.90885 25.6563,10.2266 C25.9063,10.5443 26.276,10.7031 26.7656,10.7031 C27.3385,10.7031 27.8281,10.5313 28.2344,10.1875 C28.6406,9.84375 28.8438,9.24479 28.8438,8.39063 L28.8438,4.98438 L29.3281,4.98438 L29.3281,11 L28.8438,11 L28.8438,9.875 C28.6667,10.2396 28.4323,10.5156 28.1406,10.7031 C27.724,10.9948 27.2604,11.1406 26.75,11.1406 C26.1563,11.1406 25.6823,10.9375 25.3281,10.5313 C24.974,10.1354 24.7969,9.49479 24.7969,8.60938 M35.0938,5.40625 C35.0104,5.36458 34.901,5.33333 34.7656,5.3125 C34.6406,5.29167 34.4896,5.28125 34.3125,5.28125 C33.6979,5.28125 33.1927,5.50521 32.7969,5.95313 C32.474,6.31771 32.3125,6.94271 32.3125,7.82813 L32.3125,11 L31.8281,11 L31.8281,4.98438 L32.3125,4.98438 L32.3125,6.10938 C32.4792,5.78646 32.7083,5.51563 33,5.29688 C33.3958,4.99479 33.8646,4.84375 34.4063,4.84375 C34.5521,4.84375 34.6771,4.84896 34.7813,4.85938 C34.8854,4.85938 34.9896,4.86979 35.0938,4.89063 L35.0938,5.40625 M41.0313,7.75 L41.0313,8.0625 L36.4688,8.0625 C36.4688,9.02083 36.6563,9.69792 37.0313,10.0938 C37.4479,10.5208 38.0625,10.7344 38.875,10.7344 C39.0938,10.7344 39.3802,10.6875 39.7344,10.5938 C40.0885,10.5 40.4427,10.3594 40.7969,10.1719 L40.7969,10.6875 C40.4427,10.8438 40.0807,10.9609 39.7109,11.0391 C39.3411,11.1172 39.0469,11.1563 38.8281,11.1563 C37.901,11.1563 37.2031,10.9063 36.7344,10.4063 C36.224,9.875 35.9688,9.09375 35.9688,8.0625 C35.9688,6.98958 36.1979,6.1875 36.6563,5.65625 C37.1354,5.11458 37.8021,4.84375 38.6563,4.84375 C39.4375,4.84375 40.0313,5.10417 40.4375,5.625 C40.8333,6.16667 41.0313,6.875 41.0313,7.75 M40.5313,7.64063 C40.5313,6.79688 40.3385,6.18229 39.9531,5.79688 C39.6406,5.45313 39.2083,5.28125 38.6563,5.28125 C38.0625,5.28125 37.5625,5.45833 37.1563,5.8125 C36.7813,6.14583 36.5573,6.75521 36.4844,7.64063 L40.5313,7.64063 M47.4688,13.1719 L47.4688,13.5938 L41.75,13.5938 L41.75,13.1719 L47.4688,13.1719 M52.7188,5.28125 L52.7188,5.79688 C52.4271,5.61979 52.1823,5.5 51.9844,5.4375 C51.651,5.33333 51.3333,5.28125 51.0313,5.28125 C50.1667,5.28125 49.5469,5.5026 49.1719,5.94531 C48.7969,6.38802 48.6094,7.07292 48.6094,8 C48.6094,8.9375 48.7969,9.6276 49.1719,10.0703 C49.5469,10.513 50.1667,10.7344 51.0313,10.7344 C51.3229,10.7344 51.6042,10.6927 51.875,10.6094 C52.1667,10.5365 52.4479,10.4219 52.7188,10.2656 L52.7188,10.7656 C52.4479,10.901 52.1667,11 51.875,11.0625 C51.5729,11.125 51.276,11.1563 50.9844,11.1563 C50.1094,11.1563 49.4115,10.9167 48.8906,10.4375 C48.3698,9.95833 48.1094,9.14323 48.1094,7.99219 C48.1094,6.84115 48.3698,6.02604 48.8906,5.54688 C49.4115,5.07813 50.1094,4.84375 50.9844,4.84375 C51.276,4.84375 51.5833,4.88542 51.9063,4.96875 C52.2292,5.04167 52.5,5.14583 52.7188,5.28125 M57.0625,7.60938 C56.2604,7.60938 55.6849,7.75 55.3359,8.03125 C54.987,8.3125 54.8125,8.72396 54.8125,9.26563 C54.8125,9.79688 54.9583,10.1745 55.25,10.3984 C55.5417,10.6224 55.8854,10.7344 56.2813,10.7344 C57.0313,10.7344 57.5729,10.4167 57.9063,9.78125 C58.2396,9.13542 58.4063,8.53125 58.4063,7.96875 L58.4063,7.60938 L57.0625,7.60938 M58.9063,7.5625 L58.9063,11 L58.4063,11 L58.4063,9.35938 C58.1354,10.1615 57.7708,10.6719 57.3125,10.8906 C56.9583,11.0677 56.599,11.1563 56.2344,11.1563 C55.6406,11.1563 55.1719,10.9948 54.8281,10.6719 C54.4844,10.349 54.3125,9.8776 54.3125,9.25781 C54.3125,8.63802 54.5365,8.14063 54.9844,7.76563 C55.4323,7.39063 56.1615,7.20313 57.1719,7.20313 L58.4063,7.20313 L58.4063,7.10938 C58.4063,6.57813 58.25,6.14063 57.9375,5.79688 C57.6458,5.45313 57.151,5.28125 56.4531,5.28125 C56.1094,5.28125 55.7604,5.34375 55.4063,5.46875 C55.1771,5.55208 54.875,5.71875 54.5,5.96875 L54.5,5.4375 C54.8229,5.23958 55.125,5.09896 55.4063,5.01563 C55.8021,4.90104 56.1823,4.84375 56.5469,4.84375 C57.2656,4.84375 57.8542,5.05729 58.3125,5.48438 C58.7083,5.84896 58.9063,6.54167 58.9063,7.5625 M65.7188,6.29688 C65.9063,5.80729 66.1979,5.44271 66.5938,5.20313 C66.9792,4.96354 67.4323,4.84375 67.9531,4.84375 C68.474,4.84375 68.8906,5.02604 69.2031,5.39063 C69.526,5.75521 69.6875,6.41667 69.6875,7.375 L69.6875,11 L69.2031,11 L69.2031,7.40625 C69.2031,6.57292 69.0885,6.01042 68.8594,5.71875 C68.6302,5.42708 68.3229,5.28125 67.9375,5.28125 C67.3854,5.28125 66.901,5.44792 66.4844,5.78125 C66.0156,6.15625 65.7813,6.76042 65.7813,7.59375 L65.7813,11 L65.2969,11 L65.2969,7.40625 C65.2969,6.60417 65.1849,6.04948 64.9609,5.74219 C64.737,5.4349 64.4271,5.28125 64.0313,5.28125 C63.4792,5.28125 62.9948,5.45313 62.5781,5.79688 C62.1094,6.16146 61.875,6.76042 61.875,7.59375 L61.875,11 L61.3906,11 L61.3906,4.98438 L61.875,4.98438 L61.875,6.10938 C62.0521,5.71354 62.3281,5.40104 62.7031,5.17188 C63.0677,4.95313 63.5208,4.84375 64.0625,4.84375 C64.4167,4.84375 64.7552,4.95833 65.0781,5.1875 C65.3281,5.375 65.5417,5.74479 65.7188,6.29688 "/>
</g>

<g fill="none" stroke="#000000" stroke-opacity="1" stroke-width="1" stroke-linecap="square" stroke-linejoin="bevel" transform="matrix(2,0,0,2,341.933,10)"
font-family="sans" font-size="11" font-weight="100" font-style="normal" 
>
</g>

<g fill="none" stroke="#000000" stroke-opacity="1" stroke-width="1" stroke-linecap="square" stroke-linejoin="bevel" transform="matrix(2,0,0,2,341.933,10)"
font-family="Ubuntu" font-size="11" font-weight="400" font-style="normal" 
>
</g>

<g fill="none" stroke="#000000" stroke-opacity="1" stroke-width="1" stroke-linecap="square" stroke-linejoin="bevel" transform="matrix(2,0,0,2,-0.0036,167)"
font-family="Ubuntu" font-size="11" font-weight="400" font-style="normal" 
>
</g>

<g fill="none" stroke="#000000" stroke-opacity="1" stroke-width="1" stroke-linecap="square" stroke-linejoin="bevel" transform="matrix(2,0,0,2,-0.0036,167)"
font-family="Ubuntu" font-size="11" font-weight="400" font-style="normal" 
>
</g>

<g fill="none" stroke="#000000" stroke-opacity="1" stroke-width="1" stroke-linecap="square" stroke-linejoin="bevel" transform="matrix(2,0,0,2,-0.0036,167)"
font-family="Ubuntu" font-size="11" font-weight="400" font-style="normal" 
>
</g>

<g fill="none" stroke="#000000" stroke-opacity="1" stroke-width="1" stroke-linecap="square" stroke-linejoin="round" transform="matrix(2,0,0,2,-0.0036,167)"
font-family="Ubuntu" font-size="11" font-weight="400" font-style="normal" 
>
<rect x="130.89" y="-51.5" width="150.999" height="35"/>
</g>

<g fill="none" stroke="#000000" stroke-opacity="1" stroke-width="1" stroke-linecap="square" stroke-linejoin="bevel" transform="matrix(2,0,0,2,-0.0036,167)"
font-family="Ubuntu" font-size="11" font-weight="400" font-style="normal" 
>
</g>

<g fill="none" stroke="#000000" stroke-opacity="1" stroke-width="1" stroke-linecap="square" stroke-linejoin="bevel" transform="matrix(2,0,0,2,278.651,85)"
font-family="Ubuntu" font-size="11" font-weight="400" font-style="normal" 
>
</g>

<g fill="none" stroke="#000000" stroke-opacity="1" stroke-width="1" stroke-linecap="square" stroke-linejoin="bevel" transform="matrix(2,0,0,2,278.651,85)"
font-family="sans" font-size="11" font-weight="100" font-style="normal" 
>
</g>

<g fill="#000000" fill-opacity="1" stroke="#000000" stroke-opacity="1" stroke-width="1" stroke-linecap="square" stroke-linejoin="round" transform="matrix(2,0,0,2,278.651,85)"
font-family="sans" font-size="11" font-weight="100" font-style="normal" 
>
<path vector-effect="none" fill-rule="nonzero" d="M2.96875,2.98438 L3.53125,2.98438 L0.734375,12.0156 L0.171875,12.0156 L2.96875,2.98438 M4.40625,4.98438 L4.92188,4.98438 L6.95313,10.4531 L9,4.98438 L9.51563,4.98438 L7.28125,11 L6.64063,11 L4.40625,4.98438 M11.4375,4.98438 L11.9375,4.98438 L11.9375,11 L11.4375,11 L11.4375,4.98438 M11.4375,2.64063 L11.9375,2.64063 L11.9375,3.3125 L11.4375,3.3125 L11.4375,2.64063 M18.6094,5.28125 L18.6094,5.79688 C18.3177,5.61979 18.0729,5.5 17.875,5.4375 C17.5417,5.33333 17.224,5.28125 16.9219,5.28125 C16.0573,5.28125 15.4375,5.5026 15.0625,5.94531 C14.6875,6.38802 14.5,7.07292 14.5,8 C14.5,8.9375 14.6875,9.6276 15.0625,10.0703 C15.4375,10.513 16.0573,10.7344 16.9219,10.7344 C17.2135,10.7344 17.4948,10.6927 17.7656,10.6094 C18.0573,10.5365 18.3385,10.4219 18.6094,10.2656 L18.6094,10.7656 C18.3385,10.901 18.0573,11 17.7656,11.0625 C17.4635,11.125 17.1667,11.1563 16.875,11.1563 C16,11.1563 15.3021,10.9167 14.7813,10.4375 C14.2604,9.95833 14,9.14323 14,7.99219 C14,6.84115 14.2604,6.02604 14.7813,5.54688 C15.3021,5.07813 16,4.84375 16.875,4.84375 C17.1667,4.84375 17.474,4.88542 17.7969,4.96875 C18.1198,5.04167 18.3906,5.14583 18.6094,5.28125 M21.0625,3.28125 L21.0625,4.98438 L23.0938,4.98438 L23.0938,5.40625 L21.0625,5.40625 L21.0625,9.01563 C21.0625,9.47396 21.1198,9.79688 21.2344,9.98438 C21.4844,10.3802 21.8438,10.5781 22.3125,10.5781 L23.0938,10.5781 L23.0938,11 L22.3281,11 C21.8385,11 21.4219,10.8568 21.0781,10.5703 C20.7344,10.2839 20.5625,9.76563 20.5625,9.01563 L20.5625,5.40625 L19.8438,5.40625 L19.8438,4.98438 L20.5625,4.98438 L20.5625,3.28125 L21.0625,3.28125 M24.7969,8.60938 L24.7969,4.98438 L25.2813,4.98438 L25.2813,8.57813 C25.2813,9.35938 25.4063,9.90885 25.6563,10.2266 C25.9063,10.5443 26.276,10.7031 26.7656,10.7031 C27.3385,10.7031 27.8281,10.5313 28.2344,10.1875 C28.6406,9.84375 28.8438,9.24479 28.8438,8.39063 L28.8438,4.98438 L29.3281,4.98438 L29.3281,11 L28.8438,11 L28.8438,9.875 C28.6667,10.2396 28.4323,10.5156 28.1406,10.7031 C27.724,10.9948 27.2604,11.1406 26.75,11.1406 C26.1563,11.1406 25.6823,10.9375 25.3281,10.5313 C24.974,10.1354 24.7969,9.49479 24.7969,8.60938 M35.0938,5.40625 C35.0104,5.36458 34.901,5.33333 34.7656,5.3125 C34.6406,5.29167 34.4896,5.28125 34.3125,5.28125 C33.6979,5.28125 33.1927,5.50521 32.7969,5.95313 C32.474,6.31771 32.3125,6.94271 32.3125,7.82813 L32.3125,11 L31.8281,11 L31.8281,4.98438 L32.3125,4.98438 L32.3125,6.10938 C32.4792,5.78646 32.7083,5.51563 33,5.29688 C33.3958,4.99479 33.8646,4.84375 34.4063,4.84375 C34.5521,4.84375 34.6771,4.84896 34.7813,4.85938 C34.8854,4.85938 34.9896,4.86979 35.0938,4.89063 L35.0938,5.40625 M41.0313,7.75 L41.0313,8.0625 L36.4688,8.0625 C36.4688,9.02083 36.6563,9.69792 37.0313,10.0938 C37.4479,10.5208 38.0625,10.7344 38.875,10.7344 C39.0938,10.7344 39.3802,10.6875 39.7344,10.5938 C40.0885,10.5 40.4427,10.3594 40.7969,10.1719 L40.7969,10.6875 C40.4427,10.8438 40.0807,10.9609 39.7109,11.0391 C39.3411,11.1172 39.0469,11.1563 38.8281,11.1563 C37.901,11.1563 37.2031,10.9063 36.7344,10.4063 C36.224,9.875 35.9688,9.09375 35.9688,8.0625 C35.9688,6.98958 36.1979,6.1875 36.6563,5.65625 C37.1354,5.11458 37.8021,4.84375 38.6563,4.84375 C39.4375,4.84375 40.0313,5.10417 40.4375,5.625 C40.8333,6.16667 41.0313,6.875 41.0313,7.75 M40.5313,7.64063 C40.5313,6.79688 40.3385,6.18229 39.9531,5.79688 C39.6406,5.45313 39.2083,5.28125 38.6563,5.28125 C38.0625,5.28125 37.5625,5.45833 37.1563,5.8125 C36.7813,6.14583 36.5573,6.75521 36.4844,7.64063 L40.5313,7.64063 M47.4688,13.1719 L47.4688,13.5938 L41.75,13.5938 L41.75,13.1719 L47.4688,13.1719 M52.7188,5.28125 L52.7188,5.79688 C52.4271,5.61979 52.1823,5.5 51.9844,5.4375 C51.651,5.33333 51.3333,5.28125 51.0313,5.28125 C50.1667,5.28125 49.5469,5.5026 49.1719,5.94531 C48.7969,6.38802 48.6094,7.07292 48.6094,8 C48.6094,8.9375 48.7969,9.6276 49.1719,10.0703 C49.5469,10.513 50.1667,10.7344 51.0313,10.7344 C51.3229,10.7344 51.6042,10.6927 51.875,10.6094 C52.1667,10.5365 52.4479,10.4219 52.7188,10.2656 L52.7188,10.7656 C52.4479,10.901 52.1667,11 51.875,11.0625 C51.5729,11.125 51.276,11.1563 50.9844,11.1563 C50.1094,11.1563 49.4115,10.9167 48.8906,10.4375 C48.3698,9.95833 48.1094,9.14323 48.1094,7.99219 C48.1094,6.84115 48.3698,6.02604 48.8906,5.54688 C49.4115,5.07813 50.1094,4.84375 50.9844,4.84375 C51.276,4.84375 51.5833,4.88542 51.9063,4.96875 C52.2292,5.04167 52.5,5.14583 52.7188,5.28125 M57.0625,7.60938 C56.2604,7.60938 55.6849,7.75 55.3359,8.03125 C54.987,8.3125 54.8125,8.72396 54.8125,9.26563 C54.8125,9.79688 54.9583,10.1745 55.25,10.3984 C55.5417,10.6224 55.8854,10.7344 56.2813,10.7344 C57.0313,10.7344 57.5729,10.4167 57.9063,9.78125 C58.2396,9.13542 58.4063,8.53125 58.4063,7.96875 L58.4063,7.60938 L57.0625,7.60938 M58.9063,7.5625 L58.9063,11 L58.4063,11 L58.4063,9.35938 C58.1354,10.1615 57.7708,10.6719 57.3125,10.8906 C56.9583,11.0677 56.599,11.1563 56.2344,11.1563 C55.6406,11.1563 55.1719,10.9948 54.8281,10.6719 C54.4844,10.349 54.3125,9.8776 54.3125,9.25781 C54.3125,8.63802 54.5365,8.14063 54.9844,7.76563 C55.4323,7.39063 56.1615,7.20313 57.1719,7.20313 L58.4063,7.20313 L58.4063,7.10938 C58.4063,6.57813 58.25,6.14063 57.9375,5.79688 C57.6458,5.45313 57.151,5.28125 56.4531,5.28125 C56.1094,5.28125 55.7604,5.34375 55.4063,5.46875 C55.1771,5.55208 54.875,5.71875 54.5,5.96875 L54.5,5.4375 C54.8229,5.23958 55.125,5.09896 55.4063,5.01563 C55.8021,4.90104 56.1823,4.84375 56.5469,4.84375 C57.2656,4.84375 57.8542,5.05729 58.3125,5.48438 C58.7083,5.84896 58.9063,6.54167 58.9063,7.5625 M65.7188,6.29688 C65.9063,5.80729 66.1979,5.44271 66.5938,5.20313 C66.9792,4.96354 67.4323,4.84375 67.9531,4.84375 C68.474,4.84375 68.8906,5.02604 69.2031,5.39063 C69.526,5.75521 69.6875,6.41667 69.6875,7.375 L69.6875,11 L69.2031,11 L69.2031,7.40625 C69.2031,6.57292 69.0885,6.01042 68.8594,5.71875 C68.6302,5.42708 68.3229,5.28125 67.9375,5.28125 C67.3854,5.28125 66.901,5.44792 66.4844,5.78125 C66.0156,6.15625 65.7813,6.76042 65.7813,7.59375 L65.7813,11 L65.2969,11 L65.2969,7.40625 C65.2969,6.60417 65.1849,6.04948 64.9609,5.74219 C64.737,5.4349 64.4271,5.28125 64.0313,5.28125 C63.4792,5.28125 62.9948,5.45313 62.5781,5.79688 C62.1094,6.16146 61.875,6.76042 61.875,7.59375 L61.875,11 L61.3906,11 L61.3906,4.98438 L61.875,4.98438 L61.875,6.10938 C62.0521,5.71354 62.3281,5.40104 62.7031,5.17188 C63.0677,4.95313 63.5208,4.84375 64.0625,4.84375 C64.4167,4.84375 64.7552,4.95833 65.0781,5.1875 C65.3281,5.375 65.5417,5.74479 65.7188,6.29688 M73.8125,2.98438 L74.375,2.98438 L71.5781,12.0156 L71.0156,12.0156 L73.8125,2.98438 M75.7813,4.98438 L76.2813,4.98438 L76.2813,11 L75.7813,11 L75.7813,4.98438 M75.7813,2.64063 L76.2813,2.64063 L76.2813,3.3125 L75.7813,3.3125 L75.7813,2.64063 M83.1719,6.29688 C83.3594,5.80729 83.651,5.44271 84.0469,5.20313 C84.4323,4.96354 84.8854,4.84375 85.4063,4.84375 C85.9271,4.84375 86.3438,5.02604 86.6563,5.39063 C86.9792,5.75521 87.1406,6.41667 87.1406,7.375 L87.1406,11 L86.6563,11 L86.6563,7.40625 C86.6563,6.57292 86.5417,6.01042 86.3125,5.71875 C86.0833,5.42708 85.776,5.28125 85.3906,5.28125 C84.8385,5.28125 84.3542,5.44792 83.9375,5.78125 C83.4688,6.15625 83.2344,6.76042 83.2344,7.59375 L83.2344,11 L82.75,11 L82.75,7.40625 C82.75,6.60417 82.638,6.04948 82.4141,5.74219 C82.1901,5.4349 81.8802,5.28125 81.4844,5.28125 C80.9323,5.28125 80.4479,5.45313 80.0313,5.79688 C79.5625,6.16146 79.3281,6.76042 79.3281,7.59375 L79.3281,11 L78.8438,11 L78.8438,4.98438 L79.3281,4.98438 L79.3281,6.10938 C79.5052,5.71354 79.7813,5.40104 80.1563,5.17188 C80.5208,4.95313 80.974,4.84375 81.5156,4.84375 C81.8698,4.84375 82.2083,4.95833 82.5313,5.1875 C82.7813,5.375 82.9948,5.74479 83.1719,6.29688 M91.9531,7.60938 C91.151,7.60938 90.5755,7.75 90.2266,8.03125 C89.8776,8.3125 89.7031,8.72396 89.7031,9.26563 C89.7031,9.79688 89.849,10.1745 90.1406,10.3984 C90.4323,10.6224 90.776,10.7344 91.1719,10.7344 C91.9219,10.7344 92.4635,10.4167 92.7969,9.78125 C93.1302,9.13542 93.2969,8.53125 93.2969,7.96875 L93.2969,7.60938 L91.9531,7.60938 M93.7969,7.5625 L93.7969,11 L93.2969,11 L93.2969,9.35938 C93.026,10.1615 92.6615,10.6719 92.2031,10.8906 C91.849,11.0677 91.4896,11.1563 91.125,11.1563 C90.5313,11.1563 90.0625,10.9948 89.7188,10.6719 C89.375,10.349 89.2031,9.8776 89.2031,9.25781 C89.2031,8.63802 89.4271,8.14063 89.875,7.76563 C90.3229,7.39063 91.0521,7.20313 92.0625,7.20313 L93.2969,7.20313 L93.2969,7.10938 C93.2969,6.57813 93.1406,6.14063 92.8281,5.79688 C92.5365,5.45313 92.0417,5.28125 91.3438,5.28125 C91,5.28125 90.651,5.34375 90.2969,5.46875 C90.0677,5.55208 89.7656,5.71875 89.3906,5.96875 L89.3906,5.4375 C89.7135,5.23958 90.0156,5.09896 90.2969,5.01563 C90.6927,4.90104 91.0729,4.84375 91.4375,4.84375 C92.1563,4.84375 92.7448,5.05729 93.2031,5.48438 C93.599,5.84896 93.7969,6.54167 93.7969,7.5625 M100.281,7.92188 C100.281,7.08854 100.112,6.44271 99.7734,5.98438 C99.4349,5.52604 98.9583,5.29688 98.3438,5.29688 C97.7396,5.29688 97.2682,5.52604 96.9297,5.98438 C96.5911,6.44271 96.4219,7.08854 96.4219,7.92188 C96.4219,8.75521 96.5911,9.40104 96.9297,9.85938 C97.2682,10.3177 97.7396,10.5469 98.3438,10.5469 C98.9583,10.5469 99.4349,10.3177 99.7734,9.85938 C100.112,9.40104 100.281,8.75521 100.281,7.92188 M100.766,10.25 C100.766,11.5 100.529,12.3177 100.055,12.7031 C99.5807,13.0885 98.9792,13.2813 98.25,13.2813 C97.8958,13.2813 97.5677,13.2604 97.2656,13.2188 C96.9531,13.1563 96.651,13.0729 96.3594,12.9688 L96.3594,12.4063 C96.651,12.5625 96.9375,12.6797 97.2188,12.7578 C97.5,12.8359 97.7917,12.875 98.0938,12.875 C98.6875,12.875 99.2005,12.7474 99.6328,12.4922 C100.065,12.237 100.281,11.5521 100.281,10.4375 L100.281,9.48438 C100.125,9.90104 99.9219,10.2292 99.6719,10.4688 C99.276,10.8229 98.8333,11 98.3438,11 C97.5833,11 96.9896,10.7318 96.5625,10.1953 C96.1354,9.65885 95.9219,8.90104 95.9219,7.92188 C95.9219,6.94271 96.1354,6.1849 96.5625,5.64844 C96.9896,5.11198 97.5833,4.84375 98.3438,4.84375 C98.8333,4.84375 99.25,4.99479 99.5938,5.29688 C99.8646,5.53646 100.094,5.85938 100.281,6.26563 L100.281,4.98438 L100.766,4.98438 L100.766,10.25 M107.563,7.75 L107.563,8.0625 L103,8.0625 C103,9.02083 103.188,9.69792 103.563,10.0938 C103.979,10.5208 104.594,10.7344 105.406,10.7344 C105.625,10.7344 105.911,10.6875 106.266,10.5938 C106.62,10.5 106.974,10.3594 107.328,10.1719 L107.328,10.6875 C106.974,10.8438 106.612,10.9609 106.242,11.0391 C105.872,11.1172 105.578,11.1563 105.359,11.1563 C104.432,11.1563 103.734,10.9063 103.266,10.4063 C102.755,9.875 102.5,9.09375 102.5,8.0625 C102.5,6.98958 102.729,6.1875 103.188,5.65625 C103.667,5.11458 104.333,4.84375 105.188,4.84375 C105.969,4.84375 106.563,5.10417 106.969,5.625 C107.365,6.16667 107.563,6.875 107.563,7.75 M107.063,7.64063 C107.063,6.79688 106.87,6.18229 106.484,5.79688 C106.172,5.45313 105.74,5.28125 105.188,5.28125 C104.594,5.28125 104.094,5.45833 103.688,5.8125 C103.313,6.14583 103.089,6.75521 103.016,7.64063 L107.063,7.64063 M114,13.1719 L114,13.5938 L108.281,13.5938 L108.281,13.1719 L114,13.1719 M118.406,5.40625 C118.323,5.36458 118.214,5.33333 118.078,5.3125 C117.953,5.29167 117.802,5.28125 117.625,5.28125 C117.01,5.28125 116.505,5.50521 116.109,5.95313 C115.786,6.31771 115.625,6.94271 115.625,7.82813 L115.625,11 L115.141,11 L115.141,4.98438 L115.625,4.98438 L115.625,6.10938 C115.792,5.78646 116.021,5.51563 116.313,5.29688 C116.708,4.99479 117.177,4.84375 117.719,4.84375 C117.865,4.84375 117.99,4.84896 118.094,4.85938 C118.198,4.85938 118.302,4.86979 118.406,4.89063 L118.406,5.40625 M122.063,7.60938 C121.26,7.60938 120.685,7.75 120.336,8.03125 C119.987,8.3125 119.813,8.72396 119.813,9.26563 C119.813,9.79688 119.958,10.1745 120.25,10.3984 C120.542,10.6224 120.885,10.7344 121.281,10.7344 C122.031,10.7344 122.573,10.4167 122.906,9.78125 C123.24,9.13542 123.406,8.53125 123.406,7.96875 L123.406,7.60938 L122.063,7.60938 M123.906,7.5625 L123.906,11 L123.406,11 L123.406,9.35938 C123.135,10.1615 122.771,10.6719 122.313,10.8906 C121.958,11.0677 121.599,11.1563 121.234,11.1563 C120.641,11.1563 120.172,10.9948 119.828,10.6719 C119.484,10.349 119.313,9.8776 119.313,9.25781 C119.313,8.63802 119.536,8.14063 119.984,7.76563 C120.432,7.39063 121.161,7.20313 122.172,7.20313 L123.406,7.20313 L123.406,7.10938 C123.406,6.57813 123.25,6.14063 122.938,5.79688 C122.646,5.45313 122.151,5.28125 121.453,5.28125 C121.109,5.28125 120.76,5.34375 120.406,5.46875 C120.177,5.55208 119.875,5.71875 119.5,5.96875 L119.5,5.4375 C119.823,5.23958 120.125,5.09896 120.406,5.01563 C120.802,4.90104 121.182,4.84375 121.547,4.84375 C122.266,4.84375 122.854,5.05729 123.313,5.48438 C123.708,5.84896 123.906,6.54167 123.906,7.5625 M125.844,4.98438 L126.344,4.98438 L127.766,10.3438 L129.156,4.98438 L129.797,4.98438 L131.203,10.375 L132.609,4.98438 L133.125,4.98438 L131.547,11 L130.859,11 L129.469,5.71875 L128.094,11 L127.422,11 L125.844,4.98438"/>
</g>

<g fill="none" stroke="#000000" stroke-opacity="1" stroke-width="1" stroke-linecap="square" stroke-linejoin="bevel" transform="matrix(2,0,0,2,278.651,85)"
font-family="sans" font-size="11" font-weight="100" font-style="normal" 
>
</g>

<g fill="none" stroke="#000000" stroke-opacity="1" stroke-width="1" stroke-linecap="square" stroke-linejoin="bevel" transform="matrix(2,0,0,2,278.651,85)"
font-family="Ubuntu" font-size="11" font-weight="400" font-style="normal" 
>
</g>

<g fill="none" stroke="#000000" stroke-opacity="1" stroke-width="1" stroke-linecap="square" stroke-linejoin="bevel" transform="matrix(2,0,0,2,-0.0036,167)"
font-family="Ubuntu" font-size="11" font-weight="400" font-style="normal" 
>
</g>

<g fill="none" stroke="#000000" stroke-opacity="1" stroke-width="1" stroke-linecap="square" stroke-linejoin="bevel" transform="matrix(2,0,0,2,-0.0036,167)"
font-family="Ubuntu" font-size="11" font-weight="400" font-style="normal" 
>
</g>

<g fill="none" stroke="#000000" stroke-opacity="1" stroke-width="1" stroke-linecap="square" stroke-linejoin="bevel" transform="matrix(2,0,0,2,-0.0036,167)"
font-family="Ubuntu" font-size="11" font-weight="400" font-style="normal" 
>
</g>

<g fill="none" stroke="#000000" stroke-opacity="1" stroke-width="1" stroke-linecap="square" stroke-linejoin="round" transform="matrix(2,0,0,2,-0.0036,167)"
font-family="Ubuntu" font-size="11" font-weight="400" font-style="normal" 
>
<rect x="130.89" y="-51.5" width="150.999" height="35"/>
</g>

<g fill="none" stroke="#000000" stroke-opacity="1" stroke-width="1" stroke-linecap="square" stroke-linejoin="bevel" transform="matrix(2,0,0,2,-0.0036,167)"
font-family="Ubuntu" font-size="11" font-weight="400" font-style="normal" 
>
</g>

<g fill="none" stroke="#000000" stroke-opacity="1" stroke-width="1" stroke-linecap="square" stroke-linejoin="bevel" transform="matrix(2,0,0,2,278.651,85)"
font-family="Ubuntu" font-size="11" font-weight="400" font-style="normal" 
>
</g>

<g fill="none" stroke="#000000" stroke-opacity="1" stroke-width="1" stroke-linecap="square" stroke-linejoin="bevel" transform="matrix(2,0,0,2,278.651,85)"
font-family="sans" font-size="11" font-weight="100" font-style="normal" 
>
</g>

<g fill="#000000" fill-opacity="1" stroke="#000000" stroke-opacity="1" stroke-width="1" stroke-linecap="square" stroke-linejoin="round" transform="matrix(2,0,0,2,278.651,85)"
font-family="sans" font-size="11" font-weight="100" font-style="normal" 
>
<path vector-effect="none" fill-rule="nonzero" d="M2.96875,2.98438 L3.53125,2.98438 L0.734375,12.0156 L0.171875,12.0156 L2.96875,2.98438 M4.40625,4.98438 L4.92188,4.98438 L6.95313,10.4531 L9,4.98438 L9.51563,4.98438 L7.28125,11 L6.64063,11 L4.40625,4.98438 M11.4375,4.98438 L11.9375,4.98438 L11.9375,11 L11.4375,11 L11.4375,4.98438 M11.4375,2.64063 L11.9375,2.64063 L11.9375,3.3125 L11.4375,3.3125 L11.4375,2.64063 M18.6094,5.28125 L18.6094,5.79688 C18.3177,5.61979 18.0729,5.5 17.875,5.4375 C17.5417,5.33333 17.224,5.28125 16.9219,5.28125 C16.0573,5.28125 15.4375,5.5026 15.0625,5.94531 C14.6875,6.38802 14.5,7.07292 14.5,8 C14.5,8.9375 14.6875,9.6276 15.0625,10.0703 C15.4375,10.513 16.0573,10.7344 16.9219,10.7344 C17.2135,10.7344 17.4948,10.6927 17.7656,10.6094 C18.0573,10.5365 18.3385,10.4219 18.6094,10.2656 L18.6094,10.7656 C18.3385,10.901 18.0573,11 17.7656,11.0625 C17.4635,11.125 17.1667,11.1563 16.875,11.1563 C16,11.1563 15.3021,10.9167 14.7813,10.4375 C14.2604,9.95833 14,9.14323 14,7.99219 C14,6.84115 14.2604,6.02604 14.7813,5.54688 C15.3021,5.07813 16,4.84375 16.875,4.84375 C17.1667,4.84375 17.474,4.88542 17.7969,4.96875 C18.1198,5.04167 18.3906,5.14583 18.6094,5.28125 M21.0625,3.28125 L21.0625,4.98438 L23.0938,4.98438 L23.0938,5.40625 L21.0625,5.40625 L21.0625,9.01563 C21.0625,9.47396 21.1198,9.79688 21.2344,9.98438 C21.4844,10.3802 21.8438,10.5781 22.3125,10.5781 L23.0938,10.5781 L23.0938,11 L22.3281,11 C21.8385,11 21.4219,10.8568 21.0781,10.5703 C20.7344,10.2839 20.5625,9.76563 20.5625,9.01563 L20.5625,5.40625 L19.8438,5.40625 L19.8438,4.98438 L20.5625,4.98438 L20.5625,3.28125 L21.0625,3.28125 M24.7969,8.60938 L24.7969,4.98438 L25.2813,4.98438 L25.2813,8.57813 C25.2813,9.35938 25.4063,9.90885 25.6563,10.2266 C25.9063,10.5443 26.276,10.7031 26.7656,10.7031 C27.3385,10.7031 27.8281,10.5313 28.2344,10.1875 C28.6406,9.84375 28.8438,9.24479 28.8438,8.39063 L28.8438,4.98438 L29.3281,4.98438 L29.3281,11 L28.8438,11 L28.8438,9.875 C28.6667,10.2396 28.4323,10.5156 28.1406,10.7031 C27.724,10.9948 27.2604,11.1406 26.75,11.1406 C26.1563,11.1406 25.6823,10.9375 25.3281,10.5313 C24.974,10.1354 24.7969,9.49479 24.7969,8.60938 M35.0938,5.40625 C35.0104,5.36458 34.901,5.33333 34.7656,5.3125 C34.6406,5.29167 34.4896,5.28125 34.3125,5.28125 C33.6979,5.28125 33.1927,5.50521 32.7969,5.95313 C32.474,6.31771 32.3125,6.94271 32.3125,7.82813 L32.3125,11 L31.8281,11 L31.8281,4.98438 L32.3125,4.98438 L32.3125,6.10938 C32.4792,5.78646 32.7083,5.51563 33,5.29688 C33.3958,4.99479 33.8646,4.84375 34.4063,4.84375 C34.5521,4.84375 34.6771,4.84896 34.7813,4.85938 C34.8854,4.85938 34.9896,4.86979 35.0938,4.89063 L35.0938,5.40625 M41.0313,7.75 L41.0313,8.0625 L36.4688,8.0625 C36.4688,9.02083 36.6563,9.69792 37.0313,10.0938 C37.4479,10.5208 38.0625,10.7344 38.875,10.7344 C39.0938,10.7344 39.3802,10.6875 39.7344,10.5938 C40.0885,10.5 40.4427,10.3594 40.7969,10.1719 L40.7969,10.6875 C40.4427,10.8438 40.0807,10.9609 39.7109,11.0391 C39.3411,11.1172 39.0469,11.1563 38.8281,11.1563 C37.901,11.1563 37.2031,10.9063 36.7344,10.4063 C36.224,9.875 35.9688,9.09375 35.9688,8.0625 C35.9688,6.98958 36.1979,6.1875 36.6563,5.65625 C37.1354,5.11458 37.8021,4.84375 38.6563,4.84375 C39.4375,4.84375 40.0313,5.10417 40.4375,5.625 C40.8333,6.16667 41.0313,6.875 41.0313,7.75 M40.5313,7.64063 C40.5313,6.79688 40.3385,6.18229 39.9531,5.79688 C39.6406,5.45313 39.2083,5.28125 38.6563,5.28125 C38.0625,5.28125 37.5625,5.45833 37.1563,5.8125 C36.7813,6.14583 36.5573,6.75521 36.4844,7.64063 L40.5313,7.64063 M47.4688,13.1719 L47.4688,13.5938 L41.75,13.5938 L41.75,13.1719 L47.4688,13.1719 M52.7188,5.28125 L52.7188,5.79688 C52.4271,5.61979 52.1823,5.5 51.9844,5.4375 C51.651,5.33333 51.3333,5.28125 51.0313,5.28125 C50.1667,5.28125 49.5469,5.5026 49.1719,5.94531 C48.7969,6.38802 48.6094,7.07292 48.6094,8 C48.6094,8.9375 48.7969,9.6276 49.1719,10.0703 C49.5469,10.513 50.1667,10.7344 51.0313,10.7344 C51.3229,10.7344 51.6042,10.6927 51.875,10.6094 C52.1667,10.5365 52.4479,10.4219 52.7188,10.2656 L52.7188,10.7656 C52.4479,10.901 52.1667,11 51.875,11.0625 C51.5729,11.125 51.276,11.1563 50.9844,11.1563 C50.1094,11.1563 49.4115,10.9167 48.8906,10.4375 C48.3698,9.95833 48.1094,9.14323 48.1094,7.99219 C48.1094,6.84115 48.3698,6.02604 48.8906,5.54688 C49.4115,5.07813 50.1094,4.84375 50.9844,4.84375 C51.276,4.84375 51.5833,4.88542 51.9063,4.96875 C52.2292,5.04167 52.5,5.14583 52.7188,5.28125 M57.0625,7.60938 C56.2604,7.60938 55.6849,7.75 55.3359,8.03125 C54.987,8.3125 54.8125,8.72396 54.8125,9.26563 C54.8125,9.79688 54.9583,10.1745 55.25,10.3984 C55.5417,10.6224 55.8854,10.7344 56.2813,10.7344 C57.0313,10.7344 57.5729,10.4167 57.9063,9.78125 C58.2396,9.13542 58.4063,8.53125 58.4063,7.96875 L58.4063,7.60938 L57.0625,7.60938 M58.9063,7.5625 L58.9063,11 L58.4063,11 L58.4063,9.35938 C58.1354,10.1615 57.7708,10.6719 57.3125,10.8906 C56.9583,11.0677 56.599,11.1563 56.2344,11.1563 C55.6406,11.1563 55.1719,10.9948 54.8281,10.6719 C54.4844,10.349 54.3125,9.8776 54.3125,9.25781 C54.3125,8.63802 54.5365,8.14063 54.9844,7.76563 C55.4323,7.39063 56.1615,7.20313 57.1719,7.20313 L58.4063,7.20313 L58.4063,7.10938 C58.4063,6.57813 58.25,6.14063 57.9375,5.79688 C57.6458,5.45313 57.151,5.28125 56.4531,5.28125 C56.1094,5.28125 55.7604,5.34375 55.4063,5.46875 C55.1771,5.55208 54.875,5.71875 54.5,5.96875 L54.5,5.4375 C54.8229,5.23958 55.125,5.09896 55.4063,5.01563 C55.8021,4.90104 56.1823,4.84375 56.5469,4.84375 C57.2656,4.84375 57.8542,5.05729 58.3125,5.48438 C58.7083,5.84896 58.9063,6.54167 58.9063,7.5625 M65.7188,6.29688 C65.9063,5.80729 66.1979,5.44271 66.5938,5.20313 C66.9792,4.96354 67.4323,4.84375 67.9531,4.84375 C68.474,4.84375 68.8906,5.02604 69.2031,5.39063 C69.526,5.75521 69.6875,6.41667 69.6875,7.375 L69.6875,11 L69.2031,11 L69.2031,7.40625 C69.2031,6.57292 69.0885,6.01042 68.8594,5.71875 C68.6302,5.42708 68.3229,5.28125 67.9375,5.28125 C67.3854,5.28125 66.901,5.44792 66.4844,5.78125 C66.0156,6.15625 65.7813,6.76042 65.7813,7.59375 L65.7813,11 L65.2969,11 L65.2969,7.40625 C65.2969,6.60417 65.1849,6.04948 64.9609,5.74219 C64.737,5.4349 64.4271,5.28125 64.0313,5.28125 C63.4792,5.28125 62.9948,5.45313 62.5781,5.79688 C62.1094,6.16146 61.875,6.76042 61.875,7.59375 L61.875,11 L61.3906,11 L61.3906,4.98438 L61.875,4.98438 L61.875,6.10938 C62.0521,5.71354 62.3281,5.40104 62.7031,5.17188 C63.0677,4.95313 63.5208,4.84375 64.0625,4.84375 C64.4167,4.84375 64.7552,4.95833 65.0781,5.1875 C65.3281,5.375 65.5417,5.74479 65.7188,6.29688 M73.8125,2.98438 L74.375,2.98438 L71.5781,12.0156 L71.0156,12.0156 L73.8125,2.98438 M75.7813,4.98438 L76.2813,4.98438 L76.2813,11 L75.7813,11 L75.7813,4.98438 M75.7813,2.64063 L76.2813,2.64063 L76.2813,3.3125 L75.7813,3.3125 L75.7813,2.64063 M83.1719,6.29688 C83.3594,5.80729 83.651,5.44271 84.0469,5.20313 C84.4323,4.96354 84.8854,4.84375 85.4063,4.84375 C85.9271,4.84375 86.3438,5.02604 86.6563,5.39063 C86.9792,5.75521 87.1406,6.41667 87.1406,7.375 L87.1406,11 L86.6563,11 L86.6563,7.40625 C86.6563,6.57292 86.5417,6.01042 86.3125,5.71875 C86.0833,5.42708 85.776,5.28125 85.3906,5.28125 C84.8385,5.28125 84.3542,5.44792 83.9375,5.78125 C83.4688,6.15625 83.2344,6.76042 83.2344,7.59375 L83.2344,11 L82.75,11 L82.75,7.40625 C82.75,6.60417 82.638,6.04948 82.4141,5.74219 C82.1901,5.4349 81.8802,5.28125 81.4844,5.28125 C80.9323,5.28125 80.4479,5.45313 80.0313,5.79688 C79.5625,6.16146 79.3281,6.76042 79.3281,7.59375 L79.3281,11 L78.8438,11 L78.8438,4.98438 L79.3281,4.98438 L79.3281,6.10938 C79.5052,5.71354 79.7813,5.40104 80.1563,5.17188 C80.5208,4.95313 80.974,4.84375 81.5156,4.84375 C81.8698,4.84375 82.2083,4.95833 82.5313,5.1875 C82.7813,5.375 82.9948,5.74479 83.1719,6.29688 M91.9531,7.60938 C91.151,7.60938 90.5755,7.75 90.2266,8.03125 C89.8776,8.3125 89.7031,8.72396 89.7031,9.26563 C89.7031,9.79688 89.849,10.1745 90.1406,10.3984 C90.4323,10.6224 90.776,10.7344 91.1719,10.7344 C91.9219,10.7344 92.4635,10.4167 92.7969,9.78125 C93.1302,9.13542 93.2969,8.53125 93.2969,7.96875 L93.2969,7.60938 L91.9531,7.60938 M93.7969,7.5625 L93.7969,11 L93.2969,11 L93.2969,9.35938 C93.026,10.1615 92.6615,10.6719 92.2031,10.8906 C91.849,11.0677 91.4896,11.1563 91.125,11.1563 C90.5313,11.1563 90.0625,10.9948 89.7188,10.6719 C89.375,10.349 89.2031,9.8776 89.2031,9.25781 C89.2031,8.63802 89.4271,8.14063 89.875,7.76563 C90.3229,7.39063 91.0521,7.20313 92.0625,7.20313 L93.2969,7.20313 L93.2969,7.10938 C93.2969,6.57813 93.1406,6.14063 92.8281,5.79688 C92.5365,5.45313 92.0417,5.28125 91.3438,5.28125 C91,5.28125 90.651,5.34375 90.2969,5.46875 C90.0677,5.55208 89.7656,5.71875 89.3906,5.96875 L89.3906,5.4375 C89.7135,5.23958 90.0156,5.09896 90.2969,5.01563 C90.6927,4.90104 91.0729,4.84375 91.4375,4.84375 C92.1563,4.84375 92.7448,5.05729 93.2031,5.48438 C93.599,5.84896 93.7969,6.54167 93.7969,7.5625 M100.281,7.92188 C100.281,7.08854 100.112,6.44271 99.7734,5.98438 C99.4349,5.52604 98.9583,5.29688 98.3438,5.29688 C97.7396,5.29688 97.2682,5.52604 96.9297,5.98438 C96.5911,6.44271 96.4219,7.08854 96.4219,7.92188 C96.4219,8.75521 96.5911,9.40104 96.9297,9.85938 C97.2682,10.3177 97.7396,10.5469 98.3438,10.5469 C98.9583,10.5469 99.4349,10.3177 99.7734,9.85938 C100.112,9.40104 100.281,8.75521 100.281,7.92188 M100.766,10.25 C100.766,11.5 100.529,12.3177 100.055,12.7031 C99.5807,13.0885 98.9792,13.2813 98.25,13.2813 C97.8958,13.2813 97.5677,13.2604 97.2656,13.2188 C96.9531,13.1563 96.651,13.0729 96.3594,12.9688 L96.3594,12.4063 C96.651,12.5625 96.9375,12.6797 97.2188,12.7578 C97.5,12.8359 97.7917,12.875 98.0938,12.875 C98.6875,12.875 99.2005,12.7474 99.6328,12.4922 C100.065,12.237 100.281,11.5521 100.281,10.4375 L100.281,9.48438 C100.125,9.90104 99.9219,10.2292 99.6719,10.4688 C99.276,10.8229 98.8333,11 98.3438,11 C97.5833,11 96.9896,10.7318 96.5625,10.1953 C96.1354,9.65885 95.9219,8.90104 95.9219,7.92188 C95.9219,6.94271 96.1354,6.1849 96.5625,5.64844 C96.9896,5.11198 97.5833,4.84375 98.3438,4.84375 C98.8333,4.84375 99.25,4.99479 99.5938,5.29688 C99.8646,5.53646 100.094,5.85938 100.281,6.26563 L100.281,4.98438 L100.766,4.98438 L100.766,10.25 M107.563,7.75 L107.563,8.0625 L103,8.0625 C103,9.02083 103.188,9.69792 103.563,10.0938 C103.979,10.5208 104.594,10.7344 105.406,10.7344 C105.625,10.7344 105.911,10.6875 106.266,10.5938 C106.62,10.5 106.974,10.3594 107.328,10.1719 L107.328,10.6875 C106.974,10.8438 106.612,10.9609 106.242,11.0391 C105.872,11.1172 105.578,11.1563 105.359,11.1563 C104.432,11.1563 103.734,10.9063 103.266,10.4063 C102.755,9.875 102.5,9.09375 102.5,8.0625 C102.5,6.98958 102.729,6.1875 103.188,5.65625 C103.667,5.11458 104.333,4.84375 105.188,4.84375 C105.969,4.84375 106.563,5.10417 106.969,5.625 C107.365,6.16667 107.563,6.875 107.563,7.75 M107.063,7.64063 C107.063,6.79688 106.87,6.18229 106.484,5.79688 C106.172,5.45313 105.74,5.28125 105.188,5.28125 C104.594,5.28125 104.094,5.45833 103.688,5.8125 C103.313,6.14583 103.089,6.75521 103.016,7.64063 L107.063,7.64063 M114,13.1719 L114,13.5938 L108.281,13.5938 L108.281,13.1719 L114,13.1719 M118.406,5.40625 C118.323,5.36458 118.214,5.33333 118.078,5.3125 C117.953,5.29167 117.802,5.28125 117.625,5.28125 C117.01,5.28125 116.505,5.50521 116.109,5.95313 C115.786,6.31771 115.625,6.94271 115.625,7.82813 L115.625,11 L115.141,11 L115.141,4.98438 L115.625,4.98438 L115.625,6.10938 C115.792,5.78646 116.021,5.51563 116.313,5.29688 C116.708,4.99479 117.177,4.84375 117.719,4.84375 C117.865,4.84375 117.99,4.84896 118.094,4.85938 C118.198,4.85938 118.302,4.86979 118.406,4.89063 L118.406,5.40625 M122.063,7.60938 C121.26,7.60938 120.685,7.75 120.336,8.03125 C119.987,8.3125 119.813,8.72396 119.813,9.26563 C119.813,9.79688 119.958,10.1745 120.25,10.3984 C120.542,10.6224 120.885,10.7344 121.281,10.7344 C122.031,10.7344 122.573,10.4167 122.906,9.78125 C123.24,9.13542 123.406,8.53125 123.406,7.96875 L123.406,7.60938 L122.063,7.60938 M123.906,7.5625 L123.906,11 L123.406,11 L123.406,9.35938 C123.135,10.1615 122.771,10.6719 122.313,10.8906 C121.958,11.0677 121.599,11.1563 121.234,11.1563 C120.641,11.1563 120.172,10.9948 119.828,10.6719 C119.484,10.349 119.313,9.8776 119.313,9.25781 C119.313,8.63802 119.536,8.14063 119.984,7.76563 C120.432,7.39063 121.161,7.20313 122.172,7.20313 L123.406,7.20313 L123.406,7.10938 C123.406,6.57813 123.25,6.14063 122.938,5.79688 C122.646,5.45313 122.151,5.28125 121.453,5.28125 C121.109,5.28125 120.76,5.34375 120.406,5.46875 C120.177,5.55208 119.875,5.71875 119.5,5.96875 L119.5,5.4375 C119.823,5.23958 120.125,5.09896 120.406,5.01563 C120.802,4.90104 121.182,4.84375 121.547,4.84375 C122.266,4.84375 122.854,5.05729 123.313,5.48438 C123.708,5.84896 123.906,6.54167 123.906,7.5625 M125.844,4.98438 L126.344,4.98438 L127.766,10.3438 L129.156,4.98438 L129.797,4.98438 L131.203,10.375 L132.609,4.98438 L133.125,4.98438 L131.547,11 L130.859,11 L129.469,5.71875 L128.094,11 L127.422,11 L125.844,4.98438"/>
</g>

<g fill="none" stroke="#000000" stroke-opacity="1" stroke-width="1" stroke-linecap="square" stroke-linejoin="bevel" transform="matrix(2,0,0,2,278.651,85)"
font-family="sans" font-size="11" font-weight="100" font-style="normal" 
>
</g>

<g fill="none" stroke="#000000" stroke-opacity="1" stroke-width="1" stroke-linecap="square" stroke-linejoin="bevel" transform="matrix(2,0,0,2,278.651,85)"
font-family="Ubuntu" font-size="11" font-weight="400" font-style="normal" 
>
</g>

<g fill="none" stroke="#000000" stroke-opacity="1" stroke-width="1" stroke-linecap="square" stroke-linejoin="bevel" transform="matrix(2,0,0,2,-0.0036,167)"
font-family="Ubuntu" font-size="11" font-weight="400" font-style="normal" 
>
</g>

<g fill="none" stroke="#000000" stroke-opacity="1" stroke-width="1" stroke-linecap="square" stroke-linejoin="bevel" transform="matrix(2,0,0,2,-0.0036,167)"
font-family="Ubuntu" font-size="11" font-weight="400" font-style="normal" 
>
</g>

<g fill="none" stroke="#000000" stroke-opacity="1" stroke-width="1" stroke-linecap="square" stroke-linejoin="bevel" transform="matrix(2,0,0,2,-0.0036,167)"
font-family="Ubuntu" font-size="11" font-weight="400" font-style="normal" 
>
</g>

<g fill="none" stroke="#000000" stroke-opacity="1" stroke-width="1" stroke-linecap="square" stroke-linejoin="round" transform="matrix(2,0,0,2,-0.0036,167)"
font-family="Ubuntu" font-size="11" font-weight="400" font-style="normal" 
>
<ellipse cx="57.195" cy="-34" rx="56.6932" ry="17.5"/>
</g>

<g fill="none" stroke="#000000" stroke-opacity="1" stroke-width="1" stroke-linecap="square" stroke-linejoin="bevel" transform="matrix(2,0,0,2,-0.0036,167)"
font-family="Ubuntu" font-size="11" font-weight="400" font-style="normal" 
>
</g>

<g fill="none" stroke="#000000" stroke-opacity="1" stroke-width="1" stroke-linecap="square" stroke-linejoin="bevel" transform="matrix(2,0,0,2,43.5426,85)"
font-family="Ubuntu" font-size="11" font-weight="400" font-style="normal" 
>
</g>

<g fill="none" stroke="#000000" stroke-opacity="1" stroke-width="1" stroke-linecap="square" stroke-linejoin="bevel" transform="matrix(2,0,0,2,43.5426,85)"
font-family="sans" font-size="11" font-weight="100" font-style="normal" 
>
</g>

<g fill="#000000" fill-opacity="1" stroke="#000000" stroke-opacity="1" stroke-width="1" stroke-linecap="square" stroke-linejoin="round" transform="matrix(2,0,0,2,43.5426,85)"
font-family="sans" font-size="11" font-weight="100" font-style="normal" 
>
<path vector-effect="none" fill-rule="nonzero" d="M2.96875,2.98438 L3.53125,2.98438 L0.734375,12.0156 L0.171875,12.0156 L2.96875,2.98438 M4.40625,4.98438 L4.92188,4.98438 L6.95313,10.4531 L9,4.98438 L9.51563,4.98438 L7.28125,11 L6.64063,11 L4.40625,4.98438 M11.4375,4.98438 L11.9375,4.98438 L11.9375,11 L11.4375,11 L11.4375,4.98438 M11.4375,2.64063 L11.9375,2.64063 L11.9375,3.3125 L11.4375,3.3125 L11.4375,2.64063 M18.6094,5.28125 L18.6094,5.79688 C18.3177,5.61979 18.0729,5.5 17.875,5.4375 C17.5417,5.33333 17.224,5.28125 16.9219,5.28125 C16.0573,5.28125 15.4375,5.5026 15.0625,5.94531 C14.6875,6.38802 14.5,7.07292 14.5,8 C14.5,8.9375 14.6875,9.6276 15.0625,10.0703 C15.4375,10.513 16.0573,10.7344 16.9219,10.7344 C17.2135,10.7344 17.4948,10.6927 17.7656,10.6094 C18.0573,10.5365 18.3385,10.4219 18.6094,10.2656 L18.6094,10.7656 C18.3385,10.901 18.0573,11 17.7656,11.0625 C17.4635,11.125 17.1667,11.1563 16.875,11.1563 C16,11.1563 15.3021,10.9167 14.7813,10.4375 C14.2604,9.95833 14,9.14323 14,7.99219 C14,6.84115 14.2604,6.02604 14.7813,5.54688 C15.3021,5.07813 16,4.84375 16.875,4.84375 C17.1667,4.84375 17.474,4.88542 17.7969,4.96875 C18.1198,5.04167 18.3906,5.14583 18.6094,5.28125 M21.0625,3.28125 L21.0625,4.98438 L23.0938,4.98438 L23.0938,5.40625 L21.0625,5.40625 L21.0625,9.01563 C21.0625,9.47396 21.1198,9.79688 21.2344,9.98438 C21.4844,10.3802 21.8438,10.5781 22.3125,10.5781 L23.0938,10.5781 L23.0938,11 L22.3281,11 C21.8385,11 21.4219,10.8568 21.0781,10.5703 C20.7344,10.2839 20.5625,9.76563 20.5625,9.01563 L20.5625,5.40625 L19.8438,5.40625 L19.8438,4.98438 L20.5625,4.98438 L20.5625,3.28125 L21.0625,3.28125 M24.7969,8.60938 L24.7969,4.98438 L25.2813,4.98438 L25.2813,8.57813 C25.2813,9.35938 25.4063,9.90885 25.6563,10.2266 C25.9063,10.5443 26.276,10.7031 26.7656,10.7031 C27.3385,10.7031 27.8281,10.5313 28.2344,10.1875 C28.6406,9.84375 28.8438,9.24479 28.8438,8.39063 L28.8438,4.98438 L29.3281,4.98438 L29.3281,11 L28.8438,11 L28.8438,9.875 C28.6667,10.2396 28.4323,10.5156 28.1406,10.7031 C27.724,10.9948 27.2604,11.1406 26.75,11.1406 C26.1563,11.1406 25.6823,10.9375 25.3281,10.5313 C24.974,10.1354 24.7969,9.49479 24.7969,8.60938 M35.0938,5.40625 C35.0104,5.36458 34.901,5.33333 34.7656,5.3125 C34.6406,5.29167 34.4896,5.28125 34.3125,5.28125 C33.6979,5.28125 33.1927,5.50521 32.7969,5.95313 C32.474,6.31771 32.3125,6.94271 32.3125,7.82813 L32.3125,11 L31.8281,11 L31.8281,4.98438 L32.3125,4.98438 L32.3125,6.10938 C32.4792,5.78646 32.7083,5.51563 33,5.29688 C33.3958,4.99479 33.8646,4.84375 34.4063,4.84375 C34.5521,4.84375 34.6771,4.84896 34.7813,4.85938 C34.8854,4.85938 34.9896,4.86979 35.0938,4.89063 L35.0938,5.40625 M41.0313,7.75 L41.0313,8.0625 L36.4688,8.0625 C36.4688,9.02083 36.6563,9.69792 37.0313,10.0938 C37.4479,10.5208 38.0625,10.7344 38.875,10.7344 C39.0938,10.7344 39.3802,10.6875 39.7344,10.5938 C40.0885,10.5 40.4427,10.3594 40.7969,10.1719 L40.7969,10.6875 C40.4427,10.8438 40.0807,10.9609 39.7109,11.0391 C39.3411,11.1172 39.0469,11.1563 38.8281,11.1563 C37.901,11.1563 37.2031,10.9063 36.7344,10.4063 C36.224,9.875 35.9688,9.09375 35.9688,8.0625 C35.9688,6.98958 36.1979,6.1875 36.6563,5.65625 C37.1354,5.11458 37.8021,4.84375 38.6563,4.84375 C39.4375,4.84375 40.0313,5.10417 40.4375,5.625 C40.8333,6.16667 41.0313,6.875 41.0313,7.75 M40.5313,7.64063 C40.5313,6.79688 40.3385,6.18229 39.9531,5.79688 C39.6406,5.45313 39.2083,5.28125 38.6563,5.28125 C38.0625,5.28125 37.5625,5.45833 37.1563,5.8125 C36.7813,6.14583 36.5573,6.75521 36.4844,7.64063 L40.5313,7.64063 M47.4688,13.1719 L47.4688,13.5938 L41.75,13.5938 L41.75,13.1719 L47.4688,13.1719 M52.7188,5.28125 L52.7188,5.79688 C52.4271,5.61979 52.1823,5.5 51.9844,5.4375 C51.651,5.33333 51.3333,5.28125 51.0313,5.28125 C50.1667,5.28125 49.5469,5.5026 49.1719,5.94531 C48.7969,6.38802 48.6094,7.07292 48.6094,8 C48.6094,8.9375 48.7969,9.6276 49.1719,10.0703 C49.5469,10.513 50.1667,10.7344 51.0313,10.7344 C51.3229,10.7344 51.6042,10.6927 51.875,10.6094 C52.1667,10.5365 52.4479,10.4219 52.7188,10.2656 L52.7188,10.7656 C52.4479,10.901 52.1667,11 51.875,11.0625 C51.5729,11.125 51.276,11.1563 50.9844,11.1563 C50.1094,11.1563 49.4115,10.9167 48.8906,10.4375 C48.3698,9.95833 48.1094,9.14323 48.1094,7.99219 C48.1094,6.84115 48.3698,6.02604 48.8906,5.54688 C49.4115,5.07813 50.1094,4.84375 50.9844,4.84375 C51.276,4.84375 51.5833,4.88542 51.9063,4.96875 C52.2292,5.04167 52.5,5.14583 52.7188,5.28125 M57.0625,7.60938 C56.2604,7.60938 55.6849,7.75 55.3359,8.03125 C54.987,8.3125 54.8125,8.72396 54.8125,9.26563 C54.8125,9.79688 54.9583,10.1745 55.25,10.3984 C55.5417,10.6224 55.8854,10.7344 56.2813,10.7344 C57.0313,10.7344 57.5729,10.4167 57.9063,9.78125 C58.2396,9.13542 58.4063,8.53125 58.4063,7.96875 L58.4063,7.60938 L57.0625,7.60938 M58.9063,7.5625 L58.9063,11 L58.4063,11 L58.4063,9.35938 C58.1354,10.1615 57.7708,10.6719 57.3125,10.8906 C56.9583,11.0677 56.599,11.1563 56.2344,11.1563 C55.6406,11.1563 55.1719,10.9948 54.8281,10.6719 C54.4844,10.349 54.3125,9.8776 54.3125,9.25781 C54.3125,8.63802 54.5365,8.14063 54.9844,7.76563 C55.4323,7.39063 56.1615,7.20313 57.1719,7.20313 L58.4063,7.20313 L58.4063,7.10938 C58.4063,6.57813 58.25,6.14063 57.9375,5.79688 C57.6458,5.45313 57.151,5.28125 56.4531,5.28125 C56.1094,5.28125 55.7604,5.34375 55.4063,5.46875 C55.1771,5.55208 54.875,5.71875 54.5,5.96875 L54.5,5.4375 C54.8229,5.23958 55.125,5.09896 55.4063,5.01563 C55.8021,4.90104 56.1823,4.84375 56.5469,4.84375 C57.2656,4.84375 57.8542,5.05729 58.3125,5.48438 C58.7083,5.84896 58.9063,6.54167 58.9063,7.5625 M65.7188,6.29688 C65.9063,5.80729 66.1979,5.44271 66.5938,5.20313 C66.9792,4.96354 67.4323,4.84375 67.9531,4.84375 C68.474,4.84375 68.8906,5.02604 69.2031,5.39063 C69.526,5.75521 69.6875,6.41667 69.6875,7.375 L69.6875,11 L69.2031,11 L69.2031,7.40625 C69.2031,6.57292 69.0885,6.01042 68.8594,5.71875 C68.6302,5.42708 68.3229,5.28125 67.9375,5.28125 C67.3854,5.28125 66.901,5.44792 66.4844,5.78125 C66.0156,6.15625 65.7813,6.76042 65.7813,7.59375 L65.7813,11 L65.2969,11 L65.2969,7.40625 C65.2969,6.60417 65.1849,6.04948 64.9609,5.74219 C64.737,5.4349 64.4271,5.28125 64.0313,5.28125 C63.4792,5.28125 62.9948,5.45313 62.5781,5.79688 C62.1094,6.16146 61.875,6.76042 61.875,7.59375 L61.875,11 L61.3906,11 L61.3906,4.98438 L61.875,4.98438 L61.875,6.10938 C62.0521,5.71354 62.3281,5.40104 62.7031,5.17188 C63.0677,4.95313 63.5208,4.84375 64.0625,4.84375 C64.4167,4.84375 64.7552,4.95833 65.0781,5.1875 C65.3281,5.375 65.5417,5.74479 65.7188,6.29688 "/>
</g>

<g fill="none" stroke="#000000" stroke-opacity="1" stroke-width="1" stroke-linecap="square" stroke-linejoin="bevel" transform="matrix(2,0,0,2,43.5426,85)"
font-family="sans" font-size="11" font-weight="100" font-style="normal" 
>
</g>

<g fill="none" stroke="#000000" stroke-opacity="1" stroke-width="1" stroke-linecap="square" stroke-linejoin="bevel" transform="matrix(2,0,0,2,43.5426,85)"
font-family="Ubuntu" font-size="11" font-weight="400" font-style="normal" 
>
</g>

<g fill="none" stroke="#000000" stroke-opacity="1" stroke-width="1" stroke-linecap="square" stroke-linejoin="bevel" transform="matrix(2,0,0,2,-0.0036,167)"
font-family="Ubuntu" font-size="11" font-weight="400" font-style="normal" 
>
</g>

<g fill="none" stroke="#000000" stroke-opacity="1" stroke-width="1" stroke-linecap="square" stroke-linejoin="bevel" transform="matrix(2,0,0,2,-0.0036,167)"
font-family="Ubuntu" font-size="11" font-weight="400" font-style="normal" 
>
</g>

<g fill="none" stroke="#000000" stroke-opacity="1" stroke-width="1" stroke-linecap="square" stroke-linejoin="bevel" transform="matrix(2,0,0,2,-0.0036,167)"
font-family="Ubuntu" font-size="11" font-weight="400" font-style="normal" 
>
</g>

<g fill="none" stroke="#000000" stroke-opacity="1" stroke-width="1" stroke-linecap="square" stroke-linejoin="round" transform="matrix(2,0,0,2,-0.0036,167)"
font-family="Ubuntu" font-size="11" font-weight="400" font-style="normal" 
>
<ellipse cx="371.83" cy="-34" rx="72.9436" ry="17.5"/>
</g>

<g fill="none" stroke="#000000" stroke-opacity="1" stroke-width="1" stroke-linecap="square" stroke-linejoin="bevel" transform="matrix(2,0,0,2,-0.0036,167)"
font-family="Ubuntu" font-size="11" font-weight="400" font-style="normal" 
>
</g>

<g fill="none" stroke="#000000" stroke-opacity="1" stroke-width="1" stroke-linecap="square" stroke-linejoin="bevel" transform="matrix(2,0,0,2,646.203,85)"
font-family="Ubuntu" font-size="11" font-weight="400" font-style="normal" 
>
</g>

<g fill="none" stroke="#000000" stroke-opacity="1" stroke-width="1" stroke-linecap="square" stroke-linejoin="bevel" transform="matrix(2,0,0,2,646.203,85)"
font-family="sans" font-size="11" font-weight="100" font-style="normal" 
>
</g>

<g fill="#000000" fill-opacity="1" stroke="#000000" stroke-opacity="1" stroke-width="1" stroke-linecap="square" stroke-linejoin="round" transform="matrix(2,0,0,2,646.203,85)"
font-family="sans" font-size="11" font-weight="100" font-style="normal" 
>
<path vector-effect="none" fill-rule="nonzero" d="M2.96875,2.98438 L3.53125,2.98438 L0.734375,12.0156 L0.171875,12.0156 L2.96875,2.98438 M5.46875,3.28125 L5.46875,4.98438 L7.5,4.98438 L7.5,5.40625 L5.46875,5.40625 L5.46875,9.01563 C5.46875,9.47396 5.52604,9.79688 5.64063,9.98438 C5.89063,10.3802 6.25,10.5781 6.71875,10.5781 L7.5,10.5781 L7.5,11 L6.73438,11 C6.24479,11 5.82813,10.8568 5.48438,10.5703 C5.14063,10.2839 4.96875,9.76563 4.96875,9.01563 L4.96875,5.40625 L4.25,5.40625 L4.25,4.98438 L4.96875,4.98438 L4.96875,3.28125 L5.46875,3.28125 M13.9531,7.75 L13.9531,8.0625 L9.39063,8.0625 C9.39063,9.02083 9.57813,9.69792 9.95313,10.0938 C10.3698,10.5208 10.9844,10.7344 11.7969,10.7344 C12.0156,10.7344 12.3021,10.6875 12.6563,10.5938 C13.0104,10.5 13.3646,10.3594 13.7188,10.1719 L13.7188,10.6875 C13.3646,10.8438 13.0026,10.9609 12.6328,11.0391 C12.263,11.1172 11.9688,11.1563 11.75,11.1563 C10.8229,11.1563 10.125,10.9063 9.65625,10.4063 C9.14583,9.875 8.89063,9.09375 8.89063,8.0625 C8.89063,6.98958 9.11979,6.1875 9.57813,5.65625 C10.0573,5.11458 10.724,4.84375 11.5781,4.84375 C12.3594,4.84375 12.9531,5.10417 13.3594,5.625 C13.7552,6.16667 13.9531,6.875 13.9531,7.75 M13.4531,7.64063 C13.4531,6.79688 13.2604,6.18229 12.875,5.79688 C12.5625,5.45313 12.1302,5.28125 11.5781,5.28125 C10.9844,5.28125 10.4844,5.45833 10.0781,5.8125 C9.70313,6.14583 9.47917,6.75521 9.40625,7.64063 L13.4531,7.64063 M19.4375,5.15625 L19.4375,5.70313 C19.0833,5.50521 18.8646,5.39583 18.7813,5.375 C18.5313,5.32292 18.2188,5.29167 17.8438,5.28125 C17.2813,5.28125 16.8385,5.39063 16.5156,5.60938 C16.2656,5.79688 16.1406,6.11458 16.1406,6.5625 C16.1406,6.875 16.2604,7.11458 16.5,7.28125 C16.7396,7.46875 17.0885,7.61458 17.5469,7.71875 L17.8906,7.78125 C18.4635,7.90625 18.8958,8.08333 19.1875,8.3125 C19.5313,8.58333 19.7083,8.92708 19.7188,9.34375 C19.7188,9.90625 19.5521,10.349 19.2188,10.6719 C18.8646,10.9948 18.2865,11.1563 17.4844,11.1563 C17.0469,11.1563 16.7135,11.125 16.4844,11.0625 C16.2031,10.9896 15.9115,10.8958 15.6094,10.7813 L15.6094,10.1563 C16.0469,10.4063 16.3281,10.5521 16.4531,10.5938 C16.8073,10.6875 17.1615,10.7344 17.5156,10.7344 C18.0885,10.7344 18.5156,10.6146 18.7969,10.375 C19.0781,10.125 19.2188,9.80729 19.2188,9.42188 C19.2188,9.08854 19.125,8.84896 18.9375,8.70313 C18.6667,8.48438 18.2396,8.30729 17.6563,8.17188 L17.3125,8.09375 C16.8021,7.96875 16.4167,7.80208 16.1563,7.59375 C15.8229,7.32292 15.6563,6.99479 15.6563,6.60938 C15.6563,5.98438 15.8568,5.53385 16.2578,5.25781 C16.6589,4.98177 17.151,4.84375 17.7344,4.84375 C18.2344,4.84375 18.5781,4.86979 18.7656,4.92188 C18.9948,4.98438 19.2188,5.0625 19.4375,5.15625 M22.2656,3.28125 L22.2656,4.98438 L24.2969,4.98438 L24.2969,5.40625 L22.2656,5.40625 L22.2656,9.01563 C22.2656,9.47396 22.3229,9.79688 22.4375,9.98438 C22.6875,10.3802 23.0469,10.5781 23.5156,10.5781 L24.2969,10.5781 L24.2969,11 L23.5313,11 C23.0417,11 22.625,10.8568 22.2813,10.5703 C21.9375,10.2839 21.7656,9.76563 21.7656,9.01563 L21.7656,5.40625 L21.0469,5.40625 L21.0469,4.98438 L21.7656,4.98438 L21.7656,3.28125 L22.2656,3.28125 M30.4219,13.1719 L30.4219,13.5938 L24.7031,13.5938 L24.7031,13.1719 L30.4219,13.1719 M31.0156,4.98438 L31.5313,4.98438 L33.5625,10.4531 L35.6094,4.98438 L36.125,4.98438 L33.8906,11 L33.25,11 L31.0156,4.98438 M38.0469,4.98438 L38.5469,4.98438 L38.5469,11 L38.0469,11 L38.0469,4.98438 M38.0469,2.64063 L38.5469,2.64063 L38.5469,3.3125 L38.0469,3.3125 L38.0469,2.64063 M45.2188,5.28125 L45.2188,5.79688 C44.9271,5.61979 44.6823,5.5 44.4844,5.4375 C44.151,5.33333 43.8333,5.28125 43.5313,5.28125 C42.6667,5.28125 42.0469,5.5026 41.6719,5.94531 C41.2969,6.38802 41.1094,7.07292 41.1094,8 C41.1094,8.9375 41.2969,9.6276 41.6719,10.0703 C42.0469,10.513 42.6667,10.7344 43.5313,10.7344 C43.8229,10.7344 44.1042,10.6927 44.375,10.6094 C44.6667,10.5365 44.9479,10.4219 45.2188,10.2656 L45.2188,10.7656 C44.9479,10.901 44.6667,11 44.375,11.0625 C44.0729,11.125 43.776,11.1563 43.4844,11.1563 C42.6094,11.1563 41.9115,10.9167 41.3906,10.4375 C40.8698,9.95833 40.6094,9.14323 40.6094,7.99219 C40.6094,6.84115 40.8698,6.02604 41.3906,5.54688 C41.9115,5.07813 42.6094,4.84375 43.4844,4.84375 C43.776,4.84375 44.0833,4.88542 44.4063,4.96875 C44.7292,5.04167 45,5.14583 45.2188,5.28125 M47.6719,3.28125 L47.6719,4.98438 L49.7031,4.98438 L49.7031,5.40625 L47.6719,5.40625 L47.6719,9.01563 C47.6719,9.47396 47.7292,9.79688 47.8438,9.98438 C48.0938,10.3802 48.4531,10.5781 48.9219,10.5781 L49.7031,10.5781 L49.7031,11 L48.9375,11 C48.4479,11 48.0313,10.8568 47.6875,10.5703 C47.3438,10.2839 47.1719,9.76563 47.1719,9.01563 L47.1719,5.40625 L46.4531,5.40625 L46.4531,4.98438 L47.1719,4.98438 L47.1719,3.28125 L47.6719,3.28125 M51.4063,8.60938 L51.4063,4.98438 L51.8906,4.98438 L51.8906,8.57813 C51.8906,9.35938 52.0156,9.90885 52.2656,10.2266 C52.5156,10.5443 52.8854,10.7031 53.375,10.7031 C53.9479,10.7031 54.4375,10.5313 54.8438,10.1875 C55.25,9.84375 55.4531,9.24479 55.4531,8.39063 L55.4531,4.98438 L55.9375,4.98438 L55.9375,11 L55.4531,11 L55.4531,9.875 C55.276,10.2396 55.0417,10.5156 54.75,10.7031 C54.3333,10.9948 53.8698,11.1406 53.3594,11.1406 C52.7656,11.1406 52.2917,10.9375 51.9375,10.5313 C51.5833,10.1354 51.4063,9.49479 51.4063,8.60938 M61.7031,5.40625 C61.6198,5.36458 61.5104,5.33333 61.375,5.3125 C61.25,5.29167 61.099,5.28125 60.9219,5.28125 C60.3073,5.28125 59.8021,5.50521 59.4063,5.95313 C59.0833,6.31771 58.9219,6.94271 58.9219,7.82813 L58.9219,11 L58.4375,11 L58.4375,4.98438 L58.9219,4.98438 L58.9219,6.10938 C59.0885,5.78646 59.3177,5.51563 59.6094,5.29688 C60.0052,4.99479 60.474,4.84375 61.0156,4.84375 C61.1615,4.84375 61.2865,4.84896 61.3906,4.85938 C61.4948,4.85938 61.599,4.86979 61.7031,4.89063 L61.7031,5.40625 M67.6406,7.75 L67.6406,8.0625 L63.0781,8.0625 C63.0781,9.02083 63.2656,9.69792 63.6406,10.0938 C64.0573,10.5208 64.6719,10.7344 65.4844,10.7344 C65.7031,10.7344 65.9896,10.6875 66.3438,10.5938 C66.6979,10.5 67.0521,10.3594 67.4063,10.1719 L67.4063,10.6875 C67.0521,10.8438 66.6901,10.9609 66.3203,11.0391 C65.9505,11.1172 65.6563,11.1563 65.4375,11.1563 C64.5104,11.1563 63.8125,10.9063 63.3438,10.4063 C62.8333,9.875 62.5781,9.09375 62.5781,8.0625 C62.5781,6.98958 62.8073,6.1875 63.2656,5.65625 C63.7448,5.11458 64.4115,4.84375 65.2656,4.84375 C66.0469,4.84375 66.6406,5.10417 67.0469,5.625 C67.4427,6.16667 67.6406,6.875 67.6406,7.75 M67.1406,7.64063 C67.1406,6.79688 66.9479,6.18229 66.5625,5.79688 C66.25,5.45313 65.8177,5.28125 65.2656,5.28125 C64.6719,5.28125 64.1719,5.45833 63.7656,5.8125 C63.3906,6.14583 63.1667,6.75521 63.0938,7.64063 L67.1406,7.64063 M74.0781,13.1719 L74.0781,13.5938 L68.3594,13.5938 L68.3594,13.1719 L74.0781,13.1719 M79.3281,5.28125 L79.3281,5.79688 C79.0365,5.61979 78.7917,5.5 78.5938,5.4375 C78.2604,5.33333 77.9427,5.28125 77.6406,5.28125 C76.776,5.28125 76.1563,5.5026 75.7813,5.94531 C75.4063,6.38802 75.2188,7.07292 75.2188,8 C75.2188,8.9375 75.4063,9.6276 75.7813,10.0703 C76.1563,10.513 76.776,10.7344 77.6406,10.7344 C77.9323,10.7344 78.2135,10.6927 78.4844,10.6094 C78.776,10.5365 79.0573,10.4219 79.3281,10.2656 L79.3281,10.7656 C79.0573,10.901 78.776,11 78.4844,11.0625 C78.1823,11.125 77.8854,11.1563 77.5938,11.1563 C76.7188,11.1563 76.0208,10.9167 75.5,10.4375 C74.9792,9.95833 74.7188,9.14323 74.7188,7.99219 C74.7188,6.84115 74.9792,6.02604 75.5,5.54688 C76.0208,5.07813 76.7188,4.84375 77.5938,4.84375 C77.8854,4.84375 78.1927,4.88542 78.5156,4.96875 C78.8385,5.04167 79.1094,5.14583 79.3281,5.28125 M83.6719,7.60938 C82.8698,7.60938 82.2943,7.75 81.9453,8.03125 C81.5964,8.3125 81.4219,8.72396 81.4219,9.26563 C81.4219,9.79688 81.5677,10.1745 81.8594,10.3984 C82.151,10.6224 82.4948,10.7344 82.8906,10.7344 C83.6406,10.7344 84.1823,10.4167 84.5156,9.78125 C84.849,9.13542 85.0156,8.53125 85.0156,7.96875 L85.0156,7.60938 L83.6719,7.60938 M85.5156,7.5625 L85.5156,11 L85.0156,11 L85.0156,9.35938 C84.7448,10.1615 84.3802,10.6719 83.9219,10.8906 C83.5677,11.0677 83.2083,11.1563 82.8438,11.1563 C82.25,11.1563 81.7813,10.9948 81.4375,10.6719 C81.0938,10.349 80.9219,9.8776 80.9219,9.25781 C80.9219,8.63802 81.1458,8.14063 81.5938,7.76563 C82.0417,7.39063 82.7708,7.20313 83.7813,7.20313 L85.0156,7.20313 L85.0156,7.10938 C85.0156,6.57813 84.8594,6.14063 84.5469,5.79688 C84.2552,5.45313 83.7604,5.28125 83.0625,5.28125 C82.7188,5.28125 82.3698,5.34375 82.0156,5.46875 C81.7865,5.55208 81.4844,5.71875 81.1094,5.96875 L81.1094,5.4375 C81.4323,5.23958 81.7344,5.09896 82.0156,5.01563 C82.4115,4.90104 82.7917,4.84375 83.1563,4.84375 C83.875,4.84375 84.4635,5.05729 84.9219,5.48438 C85.3177,5.84896 85.5156,6.54167 85.5156,7.5625 M92.3281,6.29688 C92.5156,5.80729 92.8073,5.44271 93.2031,5.20313 C93.5885,4.96354 94.0417,4.84375 94.5625,4.84375 C95.0833,4.84375 95.5,5.02604 95.8125,5.39063 C96.1354,5.75521 96.2969,6.41667 96.2969,7.375 L96.2969,11 L95.8125,11 L95.8125,7.40625 C95.8125,6.57292 95.6979,6.01042 95.4688,5.71875 C95.2396,5.42708 94.9323,5.28125 94.5469,5.28125 C93.9948,5.28125 93.5104,5.44792 93.0938,5.78125 C92.625,6.15625 92.3906,6.76042 92.3906,7.59375 L92.3906,11 L91.9063,11 L91.9063,7.40625 C91.9063,6.60417 91.7943,6.04948 91.5703,5.74219 C91.3464,5.4349 91.0365,5.28125 90.6406,5.28125 C90.0885,5.28125 89.6042,5.45313 89.1875,5.79688 C88.7188,6.16146 88.4844,6.76042 88.4844,7.59375 L88.4844,11 L88,11 L88,4.98438 L88.4844,4.98438 L88.4844,6.10938 C88.6615,5.71354 88.9375,5.40104 89.3125,5.17188 C89.6771,4.95313 90.1302,4.84375 90.6719,4.84375 C91.026,4.84375 91.3646,4.95833 91.6875,5.1875 C91.9375,5.375 92.151,5.74479 92.3281,6.29688 "/>
</g>

<g fill="none" stroke="#000000" stroke-opacity="1" stroke-width="1" stroke-linecap="square" stroke-linejoin="bevel" transform="matrix(2,0,0,2,646.203,85)"
font-family="sans" font-size="11" font-weight="100" font-style="normal" 
>
</g>

<g fill="none" stroke="#000000" stroke-opacity="1" stroke-width="1" stroke-linecap="square" stroke-linejoin="bevel" transform="matrix(2,0,0,2,646.203,85)"
font-family="Ubuntu" font-size="11" font-weight="400" font-style="normal" 
>
</g>

<g fill="none" stroke="#000000" stroke-opacity="1" stroke-width="1" stroke-linecap="square" stroke-linejoin="bevel" transform="matrix(2,0,0,2,-0.0036,167)"
font-family="Ubuntu" font-size="11" font-weight="400" font-style="normal" 
>
</g>

<g fill="none" stroke="#000000" stroke-opacity="1" stroke-width="1" stroke-linecap="square" stroke-linejoin="bevel" transform="matrix(2,0,0,2,-0.0036,167)"
font-family="Ubuntu" font-size="11" font-weight="400" font-style="normal" 
>
</g>

<g fill="none" stroke="#000000" stroke-opacity="1" stroke-width="1" stroke-linecap="square" stroke-linejoin="bevel" transform="matrix(2,0,0,2,-0.0036,167)"
font-family="Ubuntu" font-size="11" font-weight="400" font-style="normal" 
>
</g>

<g fill="none" stroke="#000000" stroke-opacity="1" stroke-width="1" stroke-linecap="square" stroke-linejoin="round" transform="matrix(2,0,0,2,-0.0036,167)"
font-family="Ubuntu" font-size="11" font-weight="400" font-style="normal" 
>
<path vector-effect="none" fill-rule="evenodd" d="M114.45,-34 C116.23,-34 118.02,-34 119.83,-34 "/>
</g>

<g fill="none" stroke="#000000" stroke-opacity="1" stroke-width="1" stroke-linecap="square" stroke-linejoin="bevel" transform="matrix(2,0,0,2,-0.0036,167)"
font-family="Ubuntu" font-size="11" font-weight="400" font-style="normal" 
>
</g>

<g fill="none" stroke="#000000" stroke-opacity="1" stroke-width="1" stroke-linecap="square" stroke-linejoin="bevel" transform="matrix(2,0,0,2,-0.0036,167)"
font-family="Ubuntu" font-size="11" font-weight="400" font-style="normal" 
>
</g>

<g fill="#000000" fill-opacity="1" stroke="#000000" stroke-opacity="1" stroke-width="1" stroke-linecap="square" stroke-linejoin="round" transform="matrix(2,0,0,2,-0.0036,167)"
font-family="Ubuntu" font-size="11" font-weight="400" font-style="normal" 
>
<path vector-effect="none" fill-rule="evenodd" d="M119.83,-34 L119.83,-30.36 L130.23,-34 L119.83,-37.64 L119.83,-34"/>
</g>

<g fill="none" stroke="#000000" stroke-opacity="1" stroke-width="1" stroke-linecap="square" stroke-linejoin="bevel" transform="matrix(2,0,0,2,-0.0036,167)"
font-family="Ubuntu" font-size="11" font-weight="400" font-style="normal" 
>
</g>

<g fill="none" stroke="#000000" stroke-opacity="1" stroke-width="1" stroke-linecap="square" stroke-linejoin="bevel" transform="matrix(2,0,0,2,-0.0036,167)"
font-family="Ubuntu" font-size="11" font-weight="400" font-style="normal" 
>
</g>

<g fill="none" stroke="#000000" stroke-opacity="1" stroke-width="1" stroke-linecap="square" stroke-linejoin="bevel" transform="matrix(2,0,0,2,-0.0036,167)"
font-family="Ubuntu" font-size="11" font-weight="400" font-style="normal" 
>
</g>

<g fill="none" stroke="#000000" stroke-opacity="1" stroke-width="1" stroke-linecap="square" stroke-linejoin="bevel" transform="matrix(2,0,0,2,-0.0036,167)"
font-family="Ubuntu" font-size="11" font-weight="400" font-style="normal" 
>
</g>

<g fill="none" stroke="#000000" stroke-opacity="1" stroke-width="1" stroke-linecap="square" stroke-linejoin="round" transform="matrix(2,0,0,2,-0.0036,167)"
font-family="Ubuntu" font-size="11" font-weight="400" font-style="normal" 
>
<path vector-effect="none" fill-rule="evenodd" d="M282.82,-34 C284.59,-34 286.37,-34 288.15,-34 "/>
</g>

<g fill="none" stroke="#000000" stroke-opacity="1" stroke-width="1" stroke-linecap="square" stroke-linejoin="bevel" transform="matrix(2,0,0,2,-0.0036,167)"
font-family="Ubuntu" font-size="11" font-weight="400" font-style="normal" 
>
</g>

<g fill="none" stroke="#000000" stroke-opacity="1" stroke-width="1" stroke-linecap="square" stroke-linejoin="bevel" transform="matrix(2,0,0,2,-0.0036,167)"
font-family="Ubuntu" font-size="11" font-weight="400" font-style="normal" 
>
</g>

<g fill="#000000" fill-opacity="1" stroke="#000000" stroke-opacity="1" stroke-width="1" stroke-linecap="square" stroke-linejoin="round" transform="matrix(2,0,0,2,-0.0036,167)"
font-family="Ubuntu" font-size="11" font-weight="400" font-style="normal" 
>
<path vector-effect="none" fill-rule="evenodd" d="M288.15,-34 L288.15,-30.437 L298.33,-34 L288.15,-37.563 L288.15,-34"/>
</g>

<g fill="none" stroke="#000000" stroke-opacity="1" stroke-width="1" stroke-linecap="square" stroke-linejoin="bevel" transform="matrix(2,0,0,2,-0.0036,167)"
font-family="Ubuntu" font-size="11" font-weight="400" font-style="normal" 
>
</g>

<g fill="none" stroke="#000000" stroke-opacity="1" stroke-width="1" stroke-linecap="square" stroke-linejoin="bevel" transform="matrix(1,0,0,1,0,0)"
font-family="Ubuntu" font-size="11" font-weight="400" font-style="normal" 
>
</g>
</g>
</svg>
